<?xml version="1.0" encoding="utf-8"?>
<!-- Generator: Adobe Illustrator 25.0.0, SVG Export Plug-In . SVG Version: 6.00 Build 0)  -->
<svg version="1.1" id="Ebene_1" xmlns="http://www.w3.org/2000/svg" xmlns:xlink="http://www.w3.org/1999/xlink" x="0px" y="0px"
	 viewBox="0 0 323.5 46.7" style="enable-background:new 0 0 323.5 46.7;" xml:space="preserve">
<g>
	<path d="M13,5.4L0,40.8h11.6l1.8-5.4h11.8l1.8,5.4h11.7L25.8,5.4H13z M16.1,27.1l3.2-9.8l3.2,9.8H16.1z"/>
	<path d="M56.6,5.4H41.1v35.4h11.1V29.5h4.4c2.9,0,5.3-0.5,7.3-1.6c2-1.1,3.5-2.5,4.6-4.3c1-1.8,1.6-3.8,1.6-6.1
		c0-3.7-1.2-6.6-3.5-8.9C64.3,6.5,61,5.4,56.6,5.4z M55.4,20.8h-3.1v-6.5h3.1c2.3,0,3.5,1.1,3.5,3.2C58.9,19.7,57.7,20.8,55.4,20.8z
		"/>
	<polygon points="73.6,40.8 97.2,40.8 97.2,31.9 84.7,31.9 84.7,26.9 95.7,26.9 95.7,18.6 84.7,18.6 84.7,14.2 97.2,14.2 97.2,5.4 
		73.6,5.4 	"/>
	<polygon points="136.1,5.4 123.5,5.4 118.3,14.2 112,5.4 98.9,5.4 111,22.5 99.4,40.8 112,40.8 117.4,31.6 123.9,40.8 137.1,40.8 
		124.7,23.3 	"/>
	<path d="M164.1,7.6c-2.8-1.5-6-2.2-9.7-2.2h-14.8v35.4h14.8c3.7,0,6.9-0.8,9.7-2.3c2.8-1.5,4.9-3.7,6.4-6.4
		c1.5-2.7,2.2-5.7,2.2-9.1c0-3.4-0.8-6.4-2.2-9.1C169,11.2,166.9,9.1,164.1,7.6z M159.3,28.8c-1.5,1.4-3.5,2.1-6,2.1h-2.6V15.1h2.6
		c2.5,0,4.5,0.7,6,2.1c1.5,1.4,2.2,3.3,2.2,5.9S160.8,27.4,159.3,28.8z"/>
	<path d="M196.8,25.3c0,1.6-0.4,2.9-1.1,3.9c-0.8,1-2,1.4-3.6,1.4s-2.8-0.5-3.5-1.4c-0.7-0.9-1.1-2.2-1.1-3.9V5.4h-11.1v19.9
		c0,3.4,0.7,6.3,2,8.7c1.3,2.4,3.1,4.1,5.4,5.3c2.3,1.2,5,1.8,8,1.8s5.7-0.6,8.1-1.8c2.4-1.2,4.4-3,5.8-5.4c1.4-2.4,2.1-5.3,2.1-8.6
		V5.4h-11V25.3z"/>
	<path d="M229,15.3c1.3,0,2.4,0.3,3.4,1c1,0.6,1.7,1.6,2.3,2.7h11.7c-0.5-2.8-1.5-5.2-3-7.4s-3.5-3.7-5.9-4.9
		C235,5.6,232.3,5,229.2,5c-3.6,0-6.7,0.8-9.3,2.3c-2.6,1.5-4.7,3.6-6.1,6.4c-1.4,2.7-2.1,5.9-2.1,9.4s0.7,6.6,2.1,9.4
		c1.4,2.7,3.4,4.9,6.1,6.4c2.6,1.5,5.7,2.3,9.3,2.3c3.1,0,5.8-0.6,8.2-1.7c2.4-1.1,4.4-2.8,5.9-4.9s2.5-4.5,3-7.4h-11.7
		c-0.5,1.2-1.3,2.1-2.3,2.7c-1,0.6-2.1,1-3.4,1c-1.9,0-3.3-0.7-4.4-2.1c-1.1-1.4-1.6-3.3-1.6-5.6c0-2.4,0.5-4.2,1.6-5.6
		C225.7,16,227.1,15.3,229,15.3z"/>
	<polygon points="271.8,5.4 261.4,20.3 261.4,5.4 250.3,5.4 250.3,40.8 261.4,40.8 261.4,25.4 271.7,40.8 285.1,40.8 272,22.6 
		285.1,5.4 	"/>
	<path d="M309.9,21c-1.5-0.8-3.4-1.6-5.6-2.4c-1.8-0.6-3.1-1.2-4-1.7c-0.8-0.5-1.3-1.1-1.3-1.9c0-0.6,0.2-1,0.5-1.3s0.7-0.4,1.2-0.4
		c1.4,0,2.1,0.9,2.3,2.8h12c-0.2-3.7-1.6-6.5-4.1-8.5s-5.9-3-10.1-3c-2.6,0-4.9,0.4-6.9,1.2c-2,0.8-3.7,2.1-4.9,3.7
		c-1.2,1.6-1.8,3.6-1.8,5.9c0,2.4,0.5,4.4,1.6,5.9c1.1,1.5,2.4,2.6,3.9,3.4c1.5,0.8,3.3,1.5,5.6,2.2c1.9,0.6,3.3,1.2,4.1,1.7
		c0.9,0.5,1.3,1.1,1.3,2c0,0.6-0.2,1-0.5,1.3c-0.3,0.3-0.8,0.5-1.4,0.5c-1.6,0-2.5-1-2.7-3.1h-11.8c0.2,3.8,1.7,6.7,4.5,8.7
		c2.8,2,6.2,3,10.5,3c2.8,0,5.2-0.5,7.2-1.4c2-0.9,3.5-2.2,4.6-3.9c1.1-1.6,1.6-3.5,1.6-5.5c0-2.4-0.6-4.3-1.7-5.8
		C312.7,23,311.4,21.8,309.9,21z"/>
	<polygon points="314.9,0.4 316.4,0.4 316.4,4.8 316.9,4.8 316.9,0.4 318.4,0.4 318.4,0 314.9,0 	"/>
	<polygon points="322.8,0 321.3,4.2 321.3,4.2 319.7,0 319,0 319,4.8 319.5,4.8 319.5,0.5 319.5,0.5 321,4.8 321.5,4.8 323,0.5 
		323,0.5 323,4.8 323.5,4.8 323.5,0 	"/>
</g>
</svg>
